# xmcd CD database file
#
# Track frame offsets:
#	150
#	21885
#	46000
#	70342
#	88062
#	121787
#	149170
#	169787
#	190510
#	216137
#	247290
#
# Disc length: 3653 seconds
#
# Revision: 0
# Processed by: cddbd v1.5.2PL0 Copyright (c) Steve Scherf et al.
# Submitted via: CDex 1.70beta2
#
DISCID=9e0e430b
DTITLE=Various Artist - JVC Jazz Festival 1994
DYEAR=1900
DGENRE=Jazz
TTITLE0=Ability to Swing
TTITLE1=Jacket Town
TTITLE2=A Mis Abuelos
TTITLE3=You Don't Know Me
TTITLE4=Footprints
TTITLE5=Four on Six
TTITLE6=Stella By Starlight
TTITLE7=Television
TTITLE8=Reed My Lips
TTITLE9=Mediterranean Nights
TTITLE10=At La Carousel
EXTD=
EXTT0=
EXTT1=
EXTT2=
EXTT3=
EXTT4=
EXTT5=
EXTT6=
EXTT7=
EXTT8=
EXTT9=
EXTT10=
PLAYORDER=
